# xmcd
#
# Track frame offsets:
#	150
#	38627
#	68333
#	81909
#	115300
#	145065
#	156295
#	190131
#	228711
#	256368
#	295220
#	333037
#	353339
#
# Disc length: 4795 seconds
#
# Revision: 0
# Processed by: cddbd v1.5.2PL0 Copyright (c) Steve Scherf et al.
# Submitted via: EZCDAudioConverter 2.2.0.1
#
DISCID=af12b90d
DTITLE=סיפורי הילדים הגדולים בכל הזמנים - דיסק 2 - סיפורים לחגים ומהמקורות
DYEAR=1900
DGENRE=
TTITLE0=כך ברך עידו את אביו
TTITLE1=סכך לסוכה
TTITLE2=הלביבה שהתגלגלה
TTITLE3=יום הולדת לשקדיה
TTITLE4=גיל התחפש
TTITLE5=משה בתיבה
TTITLE6=הדוד פסח
TTITLE7=ביכורים
TTITLE8=שמלת השבת של חנהלה
TTITLE9=שמשון הגיבור
TTITLE10=דוד וגוליית
TTITLE11=משפט שלמה
TTITLE12=אליהו הנביא בהר הכרמל
EXTD=
EXTT0=
EXTT1=
EXTT2=
EXTT3=
EXTT4=
EXTT5=
EXTT6=
EXTT7=
EXTT8=
EXTT9=
EXTT10=
EXTT11=
EXTT12=
PLAYORDER=
